<svg width="255" height="192" viewBox="0 0 255 192" fill="none" xmlns="http://www.w3.org/2000/svg">
<path d="M41.856 141.896C31.0187 141.896 22.0587 139.379 14.976 134.344C7.97867 129.224 4.18133 121.757 3.584 111.944H33.792C34.2187 117.149 36.5227 119.752 40.704 119.752C42.24 119.752 43.52 119.411 44.544 118.728C45.6533 117.96 46.208 116.808 46.208 115.272C46.208 113.139 45.056 111.432 42.752 110.152C40.448 108.787 36.864 107.251 32 105.544C26.1973 103.496 21.376 101.491 17.536 99.528C13.7813 97.5653 10.5387 94.7067 7.808 90.952C5.07733 87.1973 3.75467 82.376 3.84 76.488C3.84 70.6 5.33333 65.608 8.32 61.512C11.392 57.3307 15.5307 54.1733 20.736 52.04C26.0267 49.9067 31.9573 48.84 38.528 48.84C49.6213 48.84 58.4107 51.4 64.896 56.52C71.4667 61.64 74.9227 68.8507 75.264 78.152H44.672C44.5867 75.592 43.9467 73.7573 42.752 72.648C41.5573 71.5387 40.1067 70.984 38.4 70.984C37.2053 70.984 36.224 71.4107 35.456 72.264C34.688 73.032 34.304 74.1413 34.304 75.592C34.304 77.64 35.4133 79.3467 37.632 80.712C39.936 81.992 43.5627 83.5707 48.512 85.448C54.2293 87.5813 58.9227 89.6293 62.592 91.592C66.3467 93.5547 69.5893 96.2853 72.32 99.784C75.0507 103.283 76.416 107.677 76.416 112.968C76.416 118.515 75.0507 123.507 72.32 127.944C69.5893 132.296 65.6213 135.709 60.416 138.184C55.2107 140.659 49.024 141.896 41.856 141.896Z" fill="white"/>
<path d="M106.863 100.564L92.1633 135.13H84.4353L89.8113 123.202L80.2773 100.564H88.2993L93.7173 115.222L99.0933 100.564H106.863ZM118.994 124.336C116.95 124.336 115.13 123.986 113.534 123.286C111.938 122.586 110.678 121.634 109.754 120.43C108.83 119.198 108.312 117.826 108.2 116.314H115.298C115.382 117.126 115.76 117.784 116.432 118.288C117.104 118.792 117.93 119.044 118.91 119.044C119.806 119.044 120.492 118.876 120.968 118.54C121.472 118.176 121.724 117.714 121.724 117.154C121.724 116.482 121.374 115.992 120.674 115.684C119.974 115.348 118.84 114.984 117.272 114.592C115.592 114.2 114.192 113.794 113.072 113.374C111.952 112.926 110.986 112.24 110.174 111.316C109.362 110.364 108.956 109.09 108.956 107.494C108.956 106.15 109.32 104.932 110.048 103.84C110.804 102.72 111.896 101.838 113.324 101.194C114.78 100.55 116.502 100.228 118.49 100.228C121.43 100.228 123.74 100.956 125.42 102.412C127.128 103.868 128.108 105.8 128.36 108.208H121.724C121.612 107.396 121.248 106.752 120.632 106.276C120.044 105.8 119.26 105.562 118.28 105.562C117.44 105.562 116.796 105.73 116.348 106.066C115.9 106.374 115.676 106.808 115.676 107.368C115.676 108.04 116.026 108.544 116.726 108.88C117.454 109.216 118.574 109.552 120.086 109.888C121.822 110.336 123.236 110.784 124.328 111.232C125.42 111.652 126.372 112.352 127.184 113.332C128.024 114.284 128.458 115.572 128.486 117.196C128.486 118.568 128.094 119.8 127.31 120.892C126.554 121.956 125.448 122.796 123.992 123.412C122.564 124.028 120.898 124.336 118.994 124.336ZM145.942 117.91V124H142.288C139.684 124 137.654 123.37 136.198 122.11C134.742 120.822 134.014 118.736 134.014 115.852V106.528H131.158V100.564H134.014V94.852H141.196V100.564H145.9V106.528H141.196V115.936C141.196 116.636 141.364 117.14 141.7 117.448C142.036 117.756 142.596 117.91 143.38 117.91H145.942ZM172.035 111.904C172.035 112.576 171.993 113.276 171.909 114.004H155.655C155.767 115.46 156.229 116.58 157.041 117.364C157.881 118.12 158.903 118.498 160.107 118.498C161.899 118.498 163.145 117.742 163.845 116.23H171.489C171.097 117.77 170.383 119.156 169.347 120.388C168.339 121.62 167.065 122.586 165.525 123.286C163.985 123.986 162.263 124.336 160.359 124.336C158.063 124.336 156.019 123.846 154.227 122.866C152.435 121.886 151.035 120.486 150.027 118.666C149.019 116.846 148.515 114.718 148.515 112.282C148.515 109.846 149.005 107.718 149.985 105.898C150.993 104.078 152.393 102.678 154.185 101.698C155.977 100.718 158.035 100.228 160.359 100.228C162.627 100.228 164.643 100.704 166.407 101.656C168.171 102.608 169.543 103.966 170.523 105.73C171.531 107.494 172.035 109.552 172.035 111.904ZM164.685 110.014C164.685 108.782 164.265 107.802 163.425 107.074C162.585 106.346 161.535 105.982 160.275 105.982C159.071 105.982 158.049 106.332 157.209 107.032C156.397 107.732 155.893 108.726 155.697 110.014H164.685ZM205.728 100.312C208.64 100.312 210.95 101.194 212.658 102.958C214.394 104.722 215.262 107.172 215.262 110.308V124H208.122V111.274C208.122 109.762 207.716 108.6 206.904 107.788C206.12 106.948 205.028 106.528 203.628 106.528C202.228 106.528 201.122 106.948 200.31 107.788C199.526 108.6 199.134 109.762 199.134 111.274V124H191.994V111.274C191.994 109.762 191.588 108.6 190.776 107.788C189.992 106.948 188.9 106.528 187.5 106.528C186.1 106.528 184.994 106.948 184.182 107.788C183.398 108.6 183.006 109.762 183.006 111.274V124H175.824V100.564H183.006V103.504C183.734 102.524 184.686 101.754 185.862 101.194C187.038 100.606 188.368 100.312 189.852 100.312C191.616 100.312 193.184 100.69 194.556 101.446C195.956 102.202 197.048 103.28 197.832 104.68C198.644 103.392 199.75 102.342 201.15 101.53C202.55 100.718 204.076 100.312 205.728 100.312Z" fill="white"/>
<path d="M81.3332 81.282C81.3332 78.846 81.8232 76.718 82.8032 74.898C83.8112 73.078 85.1972 71.678 86.9612 70.698C88.7532 69.718 90.7972 69.228 93.0932 69.228C96.0332 69.228 98.4832 69.998 100.443 71.538C102.431 73.078 103.733 75.248 104.349 78.048H96.7052C96.0612 76.256 94.8152 75.36 92.9672 75.36C91.6512 75.36 90.6012 75.878 89.8172 76.914C89.0332 77.922 88.6412 79.378 88.6412 81.282C88.6412 83.186 89.0332 84.656 89.8172 85.692C90.6012 86.7 91.6512 87.204 92.9672 87.204C94.8152 87.204 96.0612 86.308 96.7052 84.516H104.349C103.733 87.26 102.431 89.416 100.443 90.984C98.4552 92.552 96.0052 93.336 93.0932 93.336C90.7972 93.336 88.7532 92.846 86.9612 91.866C85.1972 90.886 83.8112 89.486 82.8032 87.666C81.8232 85.846 81.3332 83.718 81.3332 81.282ZM122.597 69.312C125.285 69.312 127.441 70.208 129.065 72C130.689 73.764 131.501 76.2 131.501 79.308V93H124.361V80.274C124.361 78.706 123.955 77.488 123.143 76.62C122.331 75.752 121.239 75.318 119.867 75.318C118.495 75.318 117.403 75.752 116.591 76.62C115.779 77.488 115.373 78.706 115.373 80.274V93H108.191V61.92H115.373V72.714C116.101 71.678 117.095 70.852 118.355 70.236C119.615 69.62 121.029 69.312 122.597 69.312ZM158.584 80.904C158.584 81.576 158.542 82.276 158.458 83.004H142.204C142.316 84.46 142.778 85.58 143.59 86.364C144.43 87.12 145.452 87.498 146.656 87.498C148.448 87.498 149.694 86.742 150.394 85.23H158.038C157.646 86.77 156.932 88.156 155.896 89.388C154.888 90.62 153.614 91.586 152.074 92.286C150.534 92.986 148.812 93.336 146.908 93.336C144.612 93.336 142.568 92.846 140.776 91.866C138.984 90.886 137.584 89.486 136.576 87.666C135.568 85.846 135.064 83.718 135.064 81.282C135.064 78.846 135.554 76.718 136.534 74.898C137.542 73.078 138.942 71.678 140.734 70.698C142.526 69.718 144.584 69.228 146.908 69.228C149.176 69.228 151.192 69.704 152.956 70.656C154.72 71.608 156.092 72.966 157.072 74.73C158.08 76.494 158.584 78.552 158.584 80.904ZM151.234 79.014C151.234 77.782 150.814 76.802 149.974 76.074C149.134 75.346 148.084 74.982 146.824 74.982C145.62 74.982 144.598 75.332 143.758 76.032C142.946 76.732 142.442 77.726 142.246 79.014H151.234ZM160.945 81.24C160.945 78.832 161.393 76.718 162.289 74.898C163.213 73.078 164.459 71.678 166.027 70.698C167.595 69.718 169.345 69.228 171.277 69.228C172.817 69.228 174.217 69.55 175.477 70.194C176.765 70.838 177.773 71.706 178.501 72.798V61.92H185.683V93H178.501V89.64C177.829 90.76 176.863 91.656 175.603 92.328C174.371 93 172.929 93.336 171.277 93.336C169.345 93.336 167.595 92.846 166.027 91.866C164.459 90.858 163.213 89.444 162.289 87.624C161.393 85.776 160.945 83.648 160.945 81.24ZM178.501 81.282C178.501 79.49 177.997 78.076 176.989 77.04C176.009 76.004 174.805 75.486 173.377 75.486C171.949 75.486 170.731 76.004 169.723 77.04C168.743 78.048 168.253 79.448 168.253 81.24C168.253 83.032 168.743 84.46 169.723 85.524C170.731 86.56 171.949 87.078 173.377 87.078C174.805 87.078 176.009 86.56 176.989 85.524C177.997 84.488 178.501 83.074 178.501 81.282ZM214.02 69.564V93H206.838V89.808C206.11 90.844 205.116 91.684 203.856 92.328C202.624 92.944 201.252 93.252 199.74 93.252C197.948 93.252 196.366 92.86 194.994 92.076C193.622 91.264 192.558 90.102 191.802 88.59C191.046 87.078 190.668 85.3 190.668 83.256V69.564H197.808V82.29C197.808 83.858 198.214 85.076 199.026 85.944C199.838 86.812 200.93 87.246 202.302 87.246C203.702 87.246 204.808 86.812 205.62 85.944C206.432 85.076 206.838 83.858 206.838 82.29V69.564H214.02ZM226.361 61.92V93H219.179V61.92H226.361ZM253.658 80.904C253.658 81.576 253.616 82.276 253.532 83.004H237.278C237.39 84.46 237.852 85.58 238.664 86.364C239.504 87.12 240.526 87.498 241.73 87.498C243.522 87.498 244.768 86.742 245.468 85.23H253.112C252.72 86.77 252.006 88.156 250.97 89.388C249.962 90.62 248.688 91.586 247.148 92.286C245.608 92.986 243.886 93.336 241.982 93.336C239.686 93.336 237.642 92.846 235.85 91.866C234.058 90.886 232.658 89.486 231.65 87.666C230.642 85.846 230.138 83.718 230.138 81.282C230.138 78.846 230.628 76.718 231.608 74.898C232.616 73.078 234.016 71.678 235.808 70.698C237.6 69.718 239.658 69.228 241.982 69.228C244.25 69.228 246.266 69.704 248.03 70.656C249.794 71.608 251.166 72.966 252.146 74.73C253.154 76.494 253.658 78.552 253.658 80.904ZM246.308 79.014C246.308 77.782 245.888 76.802 245.048 76.074C244.208 75.346 243.158 74.982 241.898 74.982C240.694 74.982 239.672 75.332 238.832 76.032C238.02 76.732 237.516 77.726 237.32 79.014H246.308Z" fill="white"/>
</svg>
