<svg width="100" height="50" viewBox="0 0 131 90" fill="none" xmlns="http://www.w3.org/2000/svg">
<path d="M19.87 66.42C14.79 66.42 10.59 65.24 7.27 62.88C3.99 60.48 2.21 56.98 1.93 52.38H16.09C16.29 54.82 17.37 56.04 19.33 56.04C20.05 56.04 20.65 55.88 21.13 55.56C21.65 55.2 21.91 54.66 21.91 53.94C21.91 52.94 21.37 52.14 20.29 51.54C19.21 50.9 17.53 50.18 15.25 49.38C12.53 48.42 10.27 47.48 8.47 46.56C6.71 45.64 5.19 44.3 3.91 42.54C2.63 40.78 2.01 38.52 2.05 35.76C2.05 33 2.75 30.66 4.15 28.74C5.59 26.78 7.53 25.3 9.97 24.3C12.45 23.3 15.23 22.8 18.31 22.8C23.51 22.8 27.63 24 30.67 26.4C33.75 28.8 35.37 32.18 35.53 36.54H21.19C21.15 35.34 20.85 34.48 20.29 33.96C19.73 33.44 19.05 33.18 18.25 33.18C17.69 33.18 17.23 33.38 16.87 33.78C16.51 34.14 16.33 34.66 16.33 35.34C16.33 36.3 16.85 37.1 17.89 37.74C18.97 38.34 20.67 39.08 22.99 39.96C25.67 40.96 27.87 41.92 29.59 42.84C31.35 43.76 32.87 45.04 34.15 46.68C35.43 48.32 36.07 50.38 36.07 52.86C36.07 55.46 35.43 57.8 34.15 59.88C32.87 61.92 31.01 63.52 28.57 64.68C26.13 65.84 23.23 66.42 19.87 66.42Z" fill="white"/>
<path d="M51.9284 46.9593L44.2284 65.0653H40.1804L42.9964 58.8173L38.0024 46.9593H42.2044L45.0424 54.6373L47.8584 46.9593H51.9284ZM58.2828 59.4113C57.2121 59.4113 56.2588 59.228 55.4228 58.8613C54.5868 58.4946 53.9268 57.996 53.4428 57.3653C52.9588 56.72 52.6875 56.0013 52.6288 55.2093H56.3468C56.3908 55.6346 56.5888 55.9793 56.9408 56.2433C57.2928 56.5073 57.7255 56.6393 58.2388 56.6393C58.7081 56.6393 59.0675 56.5513 59.3168 56.3753C59.5808 56.1846 59.7128 55.9426 59.7128 55.6493C59.7128 55.2973 59.5295 55.0406 59.1628 54.8793C58.7961 54.7033 58.2021 54.5126 57.3808 54.3073C56.5008 54.102 55.7675 53.8893 55.1808 53.6693C54.5941 53.4346 54.0881 53.0753 53.6628 52.5913C53.2375 52.0926 53.0248 51.4253 53.0248 50.5893C53.0248 49.8853 53.2155 49.2473 53.5968 48.6753C53.9928 48.0886 54.5648 47.6266 55.3128 47.2893C56.0755 46.952 56.9775 46.7833 58.0188 46.7833C59.5588 46.7833 60.7688 47.1646 61.6488 47.9273C62.5435 48.69 63.0568 49.702 63.1888 50.9633H59.7128C59.6541 50.538 59.4635 50.2006 59.1408 49.9513C58.8328 49.702 58.4221 49.5773 57.9088 49.5773C57.4688 49.5773 57.1315 49.6653 56.8968 49.8413C56.6621 50.0026 56.5448 50.23 56.5448 50.5233C56.5448 50.8753 56.7281 51.1393 57.0948 51.3153C57.4761 51.4913 58.0628 51.6673 58.8548 51.8433C59.7641 52.078 60.5048 52.3126 61.0768 52.5473C61.6488 52.7673 62.1475 53.134 62.5728 53.6473C63.0128 54.146 63.2401 54.8206 63.2548 55.6713C63.2548 56.39 63.0495 57.0353 62.6388 57.6073C62.2428 58.1646 61.6635 58.6046 60.9008 58.9273C60.1528 59.25 59.2801 59.4113 58.2828 59.4113ZM72.3984 56.0453V59.2353H70.4844C69.1204 59.2353 68.057 58.9053 67.2944 58.2453C66.5317 57.5706 66.1504 56.478 66.1504 54.9673V50.0833H64.6544V46.9593H66.1504V43.9673H69.9124V46.9593H72.3764V50.0833H69.9124V55.0113C69.9124 55.378 70.0004 55.642 70.1764 55.8033C70.3524 55.9646 70.6457 56.0453 71.0564 56.0453H72.3984ZM86.0659 52.8993C86.0659 53.2513 86.0439 53.618 85.9999 53.9993H77.4859C77.5445 54.762 77.7865 55.3486 78.2119 55.7593C78.6519 56.1553 79.1872 56.3533 79.8179 56.3533C80.7566 56.3533 81.4092 55.9573 81.7759 55.1653H85.7799C85.5746 55.972 85.2006 56.698 84.6579 57.3433C84.1299 57.9886 83.4626 58.4946 82.6559 58.8613C81.8492 59.228 80.9472 59.4113 79.9499 59.4113C78.7472 59.4113 77.6765 59.1546 76.7379 58.6413C75.7992 58.128 75.0659 57.3946 74.5379 56.4413C74.0099 55.488 73.7459 54.3733 73.7459 53.0973C73.7459 51.8213 74.0025 50.7066 74.5159 49.7533C75.0439 48.8 75.7772 48.0666 76.7159 47.5533C77.6545 47.04 78.7325 46.7833 79.9499 46.7833C81.1379 46.7833 82.1939 47.0326 83.1179 47.5313C84.0419 48.03 84.7606 48.7413 85.2739 49.6653C85.8019 50.5893 86.0659 51.6673 86.0659 52.8993ZM82.2159 51.9093C82.2159 51.264 81.9959 50.7506 81.5559 50.3693C81.1159 49.988 80.5659 49.7973 79.9059 49.7973C79.2752 49.7973 78.7399 49.9806 78.2999 50.3473C77.8745 50.714 77.6105 51.2346 77.5079 51.9093H82.2159ZM103.715 46.8273C105.24 46.8273 106.45 47.2893 107.345 48.2133C108.254 49.1373 108.709 50.4206 108.709 52.0633V59.2353H104.969V52.5693C104.969 51.7773 104.756 51.1686 104.331 50.7433C103.92 50.3033 103.348 50.0833 102.615 50.0833C101.881 50.0833 101.302 50.3033 100.877 50.7433C100.466 51.1686 100.261 51.7773 100.261 52.5693V59.2353H96.5205V52.5693C96.5205 51.7773 96.3079 51.1686 95.8825 50.7433C95.4719 50.3033 94.8999 50.0833 94.1665 50.0833C93.4332 50.0833 92.8539 50.3033 92.4285 50.7433C92.0179 51.1686 91.8125 51.7773 91.8125 52.5693V59.2353H88.0505V46.9593H91.8125V48.4993C92.1939 47.986 92.6925 47.5826 93.3085 47.2893C93.9245 46.9813 94.6212 46.8273 95.3985 46.8273C96.3225 46.8273 97.1439 47.0253 97.8625 47.4213C98.5959 47.8173 99.1679 48.382 99.5785 49.1153C100.004 48.4406 100.583 47.8906 101.317 47.4653C102.05 47.04 102.849 46.8273 103.715 46.8273Z" fill="white"/>
<path d="M38.9827 34.862C38.9827 33.586 39.2393 32.4713 39.7527 31.518C40.2807 30.5647 41.0067 29.8313 41.9307 29.318C42.8693 28.8047 43.94 28.548 45.1427 28.548C46.6827 28.548 47.966 28.9513 48.9927 29.758C50.034 30.5647 50.716 31.7013 51.0387 33.168H47.0347C46.6973 32.2293 46.0447 31.76 45.0767 31.76C44.3873 31.76 43.8373 32.0313 43.4267 32.574C43.016 33.102 42.8107 33.8647 42.8107 34.862C42.8107 35.8593 43.016 36.6293 43.4267 37.172C43.8373 37.7 44.3873 37.964 45.0767 37.964C46.0447 37.964 46.6973 37.4947 47.0347 36.556H51.0387C50.716 37.9933 50.034 39.1227 48.9927 39.944C47.9513 40.7653 46.668 41.176 45.1427 41.176C43.94 41.176 42.8693 40.9193 41.9307 40.406C41.0067 39.8927 40.2807 39.1593 39.7527 38.206C39.2393 37.2527 38.9827 36.138 38.9827 34.862ZM60.597 28.592C62.005 28.592 63.1343 29.0613 63.985 30C64.8356 30.924 65.261 32.2 65.261 33.828V41H61.521V34.334C61.521 33.5127 61.3083 32.8747 60.883 32.42C60.4576 31.9653 59.8856 31.738 59.167 31.738C58.4483 31.738 57.8763 31.9653 57.451 32.42C57.0256 32.8747 56.813 33.5127 56.813 34.334V41H53.051V24.72H56.813V30.374C57.1943 29.8313 57.715 29.3987 58.375 29.076C59.035 28.7533 59.7756 28.592 60.597 28.592ZM79.4472 34.664C79.4472 35.016 79.4252 35.3827 79.3812 35.764H70.8672C70.9259 36.5267 71.1679 37.1133 71.5932 37.524C72.0332 37.92 72.5685 38.118 73.1992 38.118C74.1379 38.118 74.7905 37.722 75.1572 36.93H79.1612C78.9559 37.7367 78.5819 38.4627 78.0392 39.108C77.5112 39.7533 76.8439 40.2593 76.0372 40.626C75.2305 40.9927 74.3285 41.176 73.3312 41.176C72.1285 41.176 71.0579 40.9193 70.1192 40.406C69.1805 39.8927 68.4472 39.1593 67.9192 38.206C67.3912 37.2527 67.1272 36.138 67.1272 34.862C67.1272 33.586 67.3839 32.4713 67.8972 31.518C68.4252 30.5647 69.1585 29.8313 70.0972 29.318C71.0359 28.8047 72.1139 28.548 73.3312 28.548C74.5192 28.548 75.5752 28.7973 76.4992 29.296C77.4232 29.7947 78.1419 30.506 78.6552 31.43C79.1832 32.354 79.4472 33.432 79.4472 34.664ZM75.5972 33.674C75.5972 33.0287 75.3772 32.5153 74.9372 32.134C74.4972 31.7527 73.9472 31.562 73.2872 31.562C72.6565 31.562 72.1212 31.7453 71.6812 32.112C71.2559 32.4787 70.9919 32.9993 70.8892 33.674H75.5972ZM80.6838 34.84C80.6838 33.5787 80.9185 32.4713 81.3878 31.518C81.8718 30.5647 82.5245 29.8313 83.3458 29.318C84.1672 28.8047 85.0838 28.548 86.0958 28.548C86.9025 28.548 87.6358 28.7167 88.2958 29.054C88.9705 29.3913 89.4985 29.846 89.8798 30.418V24.72H93.6418V41H89.8798V39.24C89.5278 39.8267 89.0218 40.296 88.3618 40.648C87.7165 41 86.9612 41.176 86.0958 41.176C85.0838 41.176 84.1672 40.9193 83.3458 40.406C82.5245 39.878 81.8718 39.1373 81.3878 38.184C80.9185 37.216 80.6838 36.1013 80.6838 34.84ZM89.8798 34.862C89.8798 33.9233 89.6158 33.1827 89.0878 32.64C88.5745 32.0973 87.9438 31.826 87.1958 31.826C86.4478 31.826 85.8098 32.0973 85.2818 32.64C84.7685 33.168 84.5118 33.9013 84.5118 34.84C84.5118 35.7787 84.7685 36.5267 85.2818 37.084C85.8098 37.6267 86.4478 37.898 87.1958 37.898C87.9438 37.898 88.5745 37.6267 89.0878 37.084C89.6158 36.5413 89.8798 35.8007 89.8798 34.862ZM108.485 28.724V41H104.723V39.328C104.342 39.8707 103.821 40.3107 103.161 40.648C102.516 40.9707 101.797 41.132 101.005 41.132C100.067 41.132 99.2381 40.9267 98.5195 40.516C97.8008 40.0907 97.2435 39.482 96.8475 38.69C96.4515 37.898 96.2535 36.9667 96.2535 35.896V28.724H99.9935V35.39C99.9935 36.2113 100.206 36.8493 100.631 37.304C101.057 37.7587 101.629 37.986 102.347 37.986C103.081 37.986 103.66 37.7587 104.085 37.304C104.511 36.8493 104.723 36.2113 104.723 35.39V28.724H108.485ZM114.95 24.72V41H111.188V24.72H114.95ZM129.248 34.664C129.248 35.016 129.226 35.3827 129.182 35.764H120.668C120.727 36.5267 120.969 37.1133 121.394 37.524C121.834 37.92 122.369 38.118 123 38.118C123.939 38.118 124.591 37.722 124.958 36.93H128.962C128.757 37.7367 128.383 38.4627 127.84 39.108C127.312 39.7533 126.645 40.2593 125.838 40.626C125.031 40.9927 124.129 41.176 123.132 41.176C121.929 41.176 120.859 40.9193 119.92 40.406C118.981 39.8927 118.248 39.1593 117.72 38.206C117.192 37.2527 116.928 36.138 116.928 34.862C116.928 33.586 117.185 32.4713 117.698 31.518C118.226 30.5647 118.959 29.8313 119.898 29.318C120.837 28.8047 121.915 28.548 123.132 28.548C124.32 28.548 125.376 28.7973 126.3 29.296C127.224 29.7947 127.943 30.506 128.456 31.43C128.984 32.354 129.248 33.432 129.248 34.664ZM125.398 33.674C125.398 33.0287 125.178 32.5153 124.738 32.134C124.298 31.7527 123.748 31.562 123.088 31.562C122.457 31.562 121.922 31.7453 121.482 32.112C121.057 32.4787 120.793 32.9993 120.69 33.674H125.398Z" fill="white"/>
</svg>
